<svg height="511pt" viewBox="1 -28 511.99979 511" width="511pt" xmlns="http://www.w3.org/2000/svg"><path d="m329.46875 242.148438c0 31.773437-25.757812 57.535156-57.535156 57.535156-31.773438 0-57.53125-25.761719-57.53125-57.535156 0-31.773438 25.757812-57.53125 57.53125-57.53125 31.777344 0 57.535156 25.757812 57.535156 57.53125zm0 0" fill="#7dd0e2"/><path d="m291.421875 242.148438c0 10.761718-8.726563 19.484374-19.488281 19.484374-10.761719 0-19.484375-8.722656-19.484375-19.484374 0-10.761719 8.722656-19.484376 19.484375-19.484376 10.761718 0 19.488281 8.722657 19.488281 19.484376zm0 0" fill="#e5f1fd"/><path d="m344.730469 41.832031c0 17.230469-13.96875 31.199219-31.199219 31.199219s-31.199219-13.96875-31.199219-31.199219 13.96875-31.195312 31.199219-31.195312 31.199219 13.964843 31.199219 31.195312zm0 0" fill="#00ccb3"/><path d="m501.953125 275.117188c0 17.230468-13.96875 31.199218-31.199219 31.199218-17.230468 0-31.195312-13.96875-31.195312-31.199218 0-17.230469 13.964844-31.199219 31.195312-31.199219 17.230469 0 31.199219 13.96875 31.199219 31.199219zm0 0" fill="#ff7773"/><path d="m431.203125 375.691406c0 17.230469-13.964844 31.199219-31.195313 31.199219-17.230468 0-31.199218-13.96875-31.199218-31.199219 0-17.230468 13.96875-31.195312 31.199218-31.195312 17.230469 0 31.195313 13.964844 31.195313 31.195312zm0 0" fill="#ffdb72"/><path d="m115.953125 265.136719c0 17.230469-13.96875 31.199219-31.199219 31.199219-17.230468 0-31.195312-13.96875-31.195312-31.199219s13.964844-31.199219 31.195312-31.199219c17.230469 0 31.199219 13.96875 31.199219 31.199219zm0 0" fill="#7dd0e2"/><path d="m326.277344 263.75 112.386718 6.335938" fill="#59becd"/><path d="m166.902344 121.898438s-30.410156-61.351563 52.828125-109.011719c0 0 29.789062 79.894531-52.828125 109.011719zm0 0" fill="#ccfc5c"/><g fill="#78e08f"><path d="m207.707031 163.523438s-47.71875-49.113282-120.382812 13.496093c0 0 65.40625 54.699219 120.382812-13.496093zm0 0"/><path d="m172.683594 324.242188c-29.339844 11.679687-66.75 42.125-77.199219 120.984374 0 0 96.167969-3.023437 112.742187-91.664062 3.820313-20.425781-16.234374-37.007812-35.542968-29.320312zm0 0"/><path d="m131.199219 85.785156s-44.6875-51.886718-120.972657 6.257813c-.003906-.003907 62.011719 58.519531 120.972657-6.257813zm0 0"/></g><path d="m271.847656 212.527344c-16.332031 0-29.621094 13.289062-29.621094 29.621094 0 16.335937 13.289063 29.625 29.621094 29.625 16.332032 0 29.621094-13.289063 29.621094-29.625 0-16.332032-13.289062-29.621094-29.621094-29.621094zm0 38.972656c-5.15625 0-9.351562-4.195312-9.351562-9.351562s4.195312-9.351563 9.351562-9.351563 9.351563 4.195313 9.351563 9.351563-4.195313 9.351562-9.351563 9.351562zm0 0"/><path d="m297.011719 79.75-1.125 6.386719c-.96875 5.511719 2.714843 10.769531 8.226562 11.738281.59375.105469 1.183594.15625 1.765625.15625 4.828125 0 9.105469-3.464844 9.972656-8.382812l1.167969-6.644532c21.121094-1.820312 37.757813-19.585937 37.757813-41.171875 0-22.789062-18.542969-41.332031-41.335938-41.332031-22.792968 0-41.332031 18.542969-41.332031 41.332031 0 16.957031 10.261719 31.550781 24.902344 37.917969zm16.429687-58.980469c11.617188 0 21.0625 9.449219 21.0625 21.0625s-9.445312 21.0625-21.0625 21.0625c-11.613281 0-21.0625-9.449219-21.0625-21.0625s9.449219-21.0625 21.0625-21.0625zm0 0"/><path d="m470.667969 233.78125c-17.300781 0-32.140625 10.6875-38.292969 25.804688l-93.972656-5.296876c.71875-3.941406 1.113281-7.996093 1.113281-12.140624 0-26.902344-15.78125-50.183594-38.574219-61.082032l2.101563-12.75c.910156-5.519531-2.828125-10.738281-8.351563-11.648437-5.519531-.90625-10.738281 2.828125-11.648437 8.351562l-1.671875 10.144531c-3.113282-.441406-6.292969-.683593-9.523438-.683593-11.308594 0-21.96875 2.800781-31.34375 7.726562l-55.988281-56.746093c19.8125-9.75 34.015625-23.613282 42.308594-41.347657 16.609375-35.503906 2.90625-73.179687 2.316406-74.765625-1.039063-2.789062-3.253906-4.980468-6.050781-5.992187-2.800782-1.011719-5.902344-.742188-8.484375.738281-46.601563 26.679688-59.785157 58.148438-62.640625 79.847656-.355469 2.714844-.558594 5.339844-.644532 7.875l-13.042968-13.21875c-2.652344-2.859375-15.226563-15.441406-36.355469-21.261718-38.230469-10.527344-74.355469 8.679687-97.929687 26.644531-2.367188 1.804687-3.820313 4.554687-3.976563 7.527343-.15625 2.972657 1 5.863282 3.164063 7.90625 1.199218 1.128907 29.066406 27.011719 66.683593 27.011719 1.023438 0 2.054688-.019531 3.09375-.058593 20.988281-.796876 40.515625-9.585938 58.171875-26.152344l34.621094 35.089844c-34.339844-2.578126-64.828125 16.539062-85.132812 34.035156-2.253907 1.945312-3.539063 4.777344-3.519532 7.753906.023438 2.976562 1.351563 5.792969 3.632813 7.699219 1.207031 1.011719 28.074219 23.121093 63.21875 23.121093 2.636719 0 5.328125-.125 8.050781-.394531 20.757812-2.039062 39.605469-11.863281 56.152344-29.238281l15.847656 16.0625c-11.902344 11.910156-19.375 28.226562-19.785156 46.257812l-81.734375 7.878907c-6.417969-14.519531-20.949219-24.679688-37.816407-24.679688-22.789062 0-41.332031 18.542969-41.332031 41.335938 0 22.789062 18.542969 41.332031 41.332031 41.332031 21.652344 0 39.457032-16.738281 41.183594-37.949219l80.941406-7.800781c2.746094 9.601562 7.558594 18.332031 13.933594 25.6875l-24.335937 28.605469c-8.644531-3.667969-18.398438-3.828125-27.542969-.1875-31.976562 12.730469-72.421875 45.457031-83.496094 129.070312-.390625 2.949219.535156 5.921875 2.53125 8.128907 1.921875 2.128906 4.65625 3.335937 7.515625 3.335937.105469 0 .210938 0 .316407-.003906 1.066406-.035157 26.382812-.964844 54.023437-13.492188 37.3125-16.910156 60.953125-46.800781 68.363281-86.441406 1.863282-9.960937-.324218-19.785156-5.917968-27.691406l23.945312-28.148438c10.375 6.476563 22.613281 10.234375 35.71875 10.234375 14.027344 0 27.070312-4.292968 37.886719-11.628906l54.816406 56.132812c-3.785156 6.238282-5.964844 13.554688-5.964844 21.371094 0 22.789063 18.542969 41.332032 41.335938 41.332032 22.789062 0 41.332031-18.542969 41.332031-41.332032 0-22.792968-18.542969-41.335937-41.332031-41.335937-7.640625 0-14.796875 2.09375-20.945313 5.722656l-54.347656-55.652344c2.558594-3.1875 4.84375-6.605469 6.800781-10.230469l98.171875 5.535157c2.300782 20.625 19.835938 36.71875 41.070313 36.71875 22.789062 0 41.332031-18.542969 41.332031-41.332031 0-22.792969-18.542969-41.335938-41.332031-41.335938zm-298.605469-147.191406c2.867188-21.765625 16.695312-41.15625 41.164062-57.773438 2.066407 11.710938 3.132813 29.949219-4.832031 46.859375-6.613281 14.035157-18.480469 25.035157-35.34375 32.789063-1.226562-5.460938-2.144531-13.078125-.988281-21.875zm-21.878906 100.738281c-18.59375 1.886719-35.429688-5.199219-45.78125-11.046875 43.550781-31.921875 74.910156-20.003906 88.515625-11.398438-12.941407 13.34375-27.28125 20.886719-42.734375 22.445313zm-77.832032-81.222656c-18.664062.757812-35.050781-7.316407-45.035156-13.769531 45.386719-29.257813 75.976563-15.480469 89.039063-6.074219-13.714844 12.542969-28.480469 19.210937-44.003907 19.84375zm12.316407 180.09375c-11.613281 0-21.0625-9.449219-21.0625-21.0625s9.445312-21.0625 21.0625-21.0625c11.613281 0 21.0625 9.449219 21.0625 21.0625s-9.449219 21.0625-21.0625 21.0625zm113.507812 65.5c-6.191406 33.097656-25.101562 57.132812-56.210937 71.433593-13.003906 5.976563-25.609375 8.984376-34.46875 10.492188 7.128906-38.347656 25.066406-82.535156 68.847656-99.964844 1.691406-.675781 3.425781-1.039062 5.152344-1.140625l-24.128906 28.367188c-3.625 4.265625-3.109376 10.660156 1.15625 14.289062 1.90625 1.621094 4.238281 2.414063 6.5625 2.414063 2.867187 0 5.71875-1.210938 7.722656-3.570313l25.121094-29.53125c.605468 2.292969.707031 4.742188.246093 7.210938zm26.273438-109.550781c0-26.132813 21.261719-47.398438 47.398437-47.398438 26.132813 0 47.398438 21.265625 47.398438 47.398438 0 26.136718-21.265625 47.398437-47.398438 47.398437-26.136718 0-47.398437-21.261719-47.398437-47.398437zm196.53125 133.542968c0 11.617188-9.449219 21.0625-21.0625 21.0625s-21.0625-9.445312-21.0625-21.0625c0-5.730468 2.308593-10.929687 6.035156-14.730468.054687-.050782.113281-.09375.167969-.148438.0625-.0625.117187-.128906.179687-.195312 3.796875-3.699219 8.972657-5.988282 14.679688-5.988282 11.613281 0 21.0625 9.449219 21.0625 21.0625zm49.6875-79.511718c-11.613281 0-21.0625-9.449219-21.0625-21.0625 0-11.613282 9.449219-21.0625 21.0625-21.0625s21.0625 9.449218 21.0625 21.0625c0 11.613281-9.449219 21.0625-21.0625 21.0625zm0 0"/><path d="m148.269531 396.644531c-1.273437-5.449219-6.730469-8.835937-12.179687-7.558593-5.449219 1.277343-8.832032 6.730468-7.558594 12.179687l.085938.359375c1.09375 4.671875 5.257812 7.828125 9.859374 7.828125.765626 0 1.542969-.089844 2.320313-.269531 5.449219-1.277344 8.832031-6.730469 7.558594-12.179688zm0 0"/><path d="m297.421875 117.0625c-5.449219 1.28125-8.828125 6.738281-7.542969 12.1875l.085938.359375c1.097656 4.667969 5.261718 7.8125 9.855468 7.8125.769532 0 1.550782-.085937 2.332032-.273437 5.449218-1.28125 8.828125-6.738282 7.542968-12.1875l-.085937-.359376c-1.28125-5.445312-6.742187-8.820312-12.1875-7.539062zm0 0"/></svg>